<svg fill="#e8e8e8" width="256px" height="256px" viewBox="-3.36 -3.36 30.72 30.72" xmlns="http://www.w3.org/2000/svg" id="home" class="icon glyph" stroke="#e8e8e8" stroke-width="1.296">
	<g id="SVGRepo_bgCarrier" stroke-width="0">
		<path transform="translate(-3.36, -3.36), scale(1.92)" fill="#052f4a" d="M9.166.33a2.25 2.25 0 00-2.332 0l-5.25 3.182A2.25 2.25 0 00.5 5.436v5.128a2.25 2.25 0 001.084 1.924l5.25 3.182a2.25 2.25 0 002.332 0l5.25-3.182a2.25 2.25 0 001.084-1.924V5.436a2.25 2.25 0 00-1.084-1.924L9.166.33z" strokewidth="0">
		</path>
	</g>
	<g id="SVGRepo_tracerCarrier" stroke-linecap="round" stroke-linejoin="round">
	</g>
	<g id="SVGRepo_iconCarrier">
		<path d="M21.71,12.71a1,1,0,0,1-1.42,0L20,12.42V20.3A1.77,1.77,0,0,1,18.17,22H16a1,1,0,0,1-1-1V15.1a1,1,0,0,0-1-1H10a1,1,0,0,0-1,1V21a1,1,0,0,1-1,1H5.83A1.77,1.77,0,0,1,4,20.3V12.42l-.29.29a1,1,0,0,1-1.42,0,1,1,0,0,1,0-1.42l9-9a1,1,0,0,1,1.42,0l9,9A1,1,0,0,1,21.71,12.71Z">
		</path>
	</g>
</svg>
